<svg width="175" height="36" viewBox="0 0 175 36" fill="none" xmlns="http://www.w3.org/2000/svg">
<path d="M59.0675 31.9213L73.5683 31.9286L74.1839 35.0781H59.0511V35.0654H58.2653C56.4259 35.0654 54.9347 33.5741 54.9347 31.7347V3.33428C54.9347 1.4949 56.4259 0.00378418 58.2653 0.00378418H67.305L67.9196 3.14782H59.0675C58.761 3.14782 58.5124 3.39633 58.5124 3.70291V15.9843H70.428L71.0318 19.0742H58.5124V31.3662C58.5124 31.6728 58.761 31.9213 59.0675 31.9213Z" fill="white"/>
<path d="M44.592 35.0781C47.7722 35.0781 49.7236 34.1205 50.4463 32.2052C50.7354 31.4462 50.8801 30.5248 50.8801 29.4407V15.8507H48.3641V13.7878C48.3641 13.317 47.9826 12.9353 47.5117 12.9353C47.0409 12.9353 46.6592 13.317 46.6592 13.7878V15.8507H44.7859V13.7878C44.7859 13.317 44.4041 12.9353 43.9334 12.9353C43.4625 12.9353 43.0809 13.317 43.0809 13.7878V15.8507H40.6348V18.3551C40.6348 18.7215 40.8156 19.0643 41.1179 19.2711L46.7651 23.1369C47.0674 23.3438 47.2482 23.6867 47.2482 24.053V31.3379C47.1759 31.627 47.0133 31.7896 46.7602 31.8257H33.0458C32.7567 31.7534 32.5941 31.5907 32.5579 31.3379V3.74629C32.6301 3.45718 32.7928 3.29456 33.0458 3.25842H50.2838V0.00598145H35.1057C31.9255 0.00598145 29.974 0.963645 29.2513 2.87897C28.9622 3.63788 28.8176 4.5594 28.8176 5.64356V29.4407C28.8176 32.3316 29.9017 34.0844 32.0701 34.6986C32.9013 34.9517 33.9131 35.0781 35.1057 35.0781H44.592Z" fill="white"/>
<path fill-rule="evenodd" clip-rule="evenodd" d="M14.5811 0.00574584H21.2545V0.00679249H23.2666C23.8798 0.00679249 24.3768 0.503832 24.3768 1.11696V35.078H20.8774V25.5931H6.3958L3.84805 35.078H0.432983L8.94354 4.91367C9.44949 3.11226 9.93735 1.89907 10.4071 1.27408C11.0938 0.391763 12.4851 -0.0310176 14.5811 0.00574584ZM20.8774 22.3946V3.20417H12.9007C12.6839 3.24094 12.5212 3.40636 12.4128 3.70047L7.26311 22.3946H20.8774Z" fill="white"/>
<path d="M88.814 35.0536H80.7519L73.9044 0.0140205H81.3023L86.4731 27.7466H88.3703C88.6956 27.7103 88.9484 27.4575 89.1292 26.9876L94.9178 0H102.453L95.9051 28.5053C95.3992 30.6737 94.8391 32.2095 94.2247 33.113C93.2851 34.4139 91.452 35.1259 88.814 35.0536Z" fill="white"/>
<path d="M154.722 28.0363H143.014V0.00317383H134.991V35.029H154.722V28.0363Z" fill="white"/>
<path d="M104.422 26.4051C104.494 32.1512 107.747 35.0423 114.179 35.0783H116.511L116.96 23.8721L112.055 24.7195C111.716 24.778 111.407 24.5183 111.405 24.1749L111.33 7.02779C111.328 6.71954 111.578 6.46924 111.886 6.47025L121.187 6.50088C121.542 6.50205 121.805 6.83102 121.727 7.17716L119.379 17.6742L125.898 16.4066C126.324 16.3237 126.676 16.7401 126.523 17.1465L119.793 35.0783H121.226C127.695 35.006 130.948 32.115 130.984 26.4051V8.67953C130.911 2.93354 127.659 0.0424859 121.226 0.00634766H114.179C107.711 0.0786237 104.458 2.96969 104.422 8.67953V26.4051Z" fill="white"/>
<path d="M166.778 6.99959V35.0509H158.755V6.99959H150.949V0.00683594H174.583V6.99959H166.778Z" fill="white"/>
</svg>
