<svg width="293" height="60" viewBox="0 0 293 60" fill="none" xmlns="http://www.w3.org/2000/svg">
<path d="M27.9226 37.1652C27.9226 29.2935 33.9469 25.2313 43.8886 25.2925V24.7768C43.8886 22.711 43.1713 19.2925 38.4193 19.2925C35.7691 19.2925 33.0061 20.2593 31.1837 21.6136L29.8571 16.4523C31.8468 15.031 35.3255 13.6783 39.5819 13.6783C48.196 13.6783 50.6821 20.0676 50.6821 26.9673V38.26C50.6821 41.096 50.7933 43.8682 51.1256 45.8035H44.996L44.4955 42.3214H44.3288C42.7275 44.774 39.9109 46.5167 36.3759 46.5167C30.9628 46.5167 27.9226 41.9331 27.9226 37.1652ZM44.0543 34.7728V30.4528C39.2479 30.3859 34.6618 31.5502 34.6618 36.3214C34.6618 39.4201 36.3743 40.8382 38.5289 40.8382C41.2911 40.8382 43.2248 38.774 43.8861 36.5189C44.0543 35.9347 44.0543 35.3554 44.0543 34.7728Z" fill="white"/>
<path d="M70.6235 27.2277L81.9997 45.8069H73.6577L65.9268 31.9369L63.6599 35.0959V45.8069H56.8682V0H63.6599V28.1962H63.7696C64.4369 26.969 65.2077 25.6146 65.8698 24.5181L72.4441 14.3881H80.6196L70.6235 27.2277Z" fill="white"/>
<path d="M99.8726 14.388V20.3244H93.4079V34.1952C93.4079 38.064 94.2925 39.9992 96.8882 39.9992C98.1037 39.9992 98.7668 39.9373 99.5383 39.6762L99.6498 45.6761C98.6538 46.1297 96.8315 46.5165 94.7313 46.5165C92.1907 46.5165 90.1459 45.5489 88.8769 43.9366C87.3836 42.127 86.7223 39.2225 86.7223 35.0958V20.3244H82.9094V14.388H86.7223V8.51685L93.4062 6.32544V14.388H99.8726Z" fill="white"/>
<path d="M128.128 45.8069H122.221L121.889 41.096H121.722C120.565 43.2907 117.915 46.5166 113.051 46.5166C108.188 46.5166 103.716 43.0948 103.716 32.8426V14.3882H110.511V31.4866C110.511 36.7115 111.944 40.0664 115.536 40.0664C118.297 40.0664 120.064 37.8717 120.731 35.8058C121.004 35.163 121.115 34.2622 121.115 33.3583V14.3882H127.911V36.3884C127.911 40.1283 128.022 43.2237 128.128 45.8069Z" fill="white"/>
<path d="M132.47 37.1652C132.47 29.2935 138.488 25.2313 148.431 25.2925V24.7768C148.431 22.711 147.715 19.2925 142.964 19.2925C140.314 19.2925 137.55 20.2593 135.728 21.6136L134.405 16.4523C136.39 15.031 139.873 13.6783 144.125 13.6783C152.739 13.6783 155.228 20.0676 155.228 26.9673V38.26C155.228 41.096 155.337 43.8682 155.668 45.8035H149.538L149.039 42.3214H148.87C147.268 44.774 144.455 46.5167 140.917 46.5167C135.504 46.5167 132.47 41.9331 132.47 37.1652ZM148.597 34.7728V30.4528C143.791 30.3859 139.205 31.5502 139.205 36.3214C139.205 39.4201 140.917 40.8382 143.072 40.8382C145.834 40.8382 147.767 38.774 148.43 36.5189C148.597 35.9347 148.597 35.3554 148.597 34.7728Z" fill="white"/>
<path d="M168.236 0H161.439V45.8068H168.236V0Z" fill="white"/>
<path d="M181.409 14.3882H174.612V45.8069H181.409V14.3882Z" fill="white"/>
<path d="M181.851 5.61395C181.851 7.93855 180.358 9.87045 177.984 9.87045C175.717 9.87045 174.228 7.93855 174.228 5.61395C174.228 3.16315 175.771 1.29065 178.041 1.29065C180.358 1.28897 181.793 3.16315 181.851 5.61395Z" fill="white"/>
<path d="M202.001 14.388V20.3244H195.539V34.1952C195.539 38.064 196.423 39.9992 199.016 39.9992C200.233 39.9992 200.896 39.9373 201.668 39.6762L201.777 45.6761C200.784 46.1297 198.961 46.5165 196.86 46.5165C194.32 46.5165 192.274 45.5489 191.007 43.9366C189.514 42.127 188.852 39.2225 188.852 35.0958V20.3244H185.039V14.388H188.852V8.51685L195.535 6.32544V14.388H202.001Z" fill="white"/>
<path d="M231.293 14.3882L224.552 35.8058C220.852 47.548 218.368 52.7728 215.222 55.9989C212.515 58.7093 209.753 59.7455 208.094 60L206.549 53.3537C207.71 53.0323 209.088 52.3225 210.473 51.1608C211.794 50.193 213.29 48.3247 214.228 46.1952C214.501 45.6127 214.611 45.1606 214.611 44.7756C214.611 44.4542 214.557 44.0005 214.285 43.2255L204.392 14.3899H211.906L216.714 31.2322C217.263 33.1674 217.874 35.5514 218.257 37.2924H218.425C218.813 35.548 219.308 33.1674 219.864 31.1652L224.06 14.3899H231.293V14.3882Z" fill="white"/>
<path d="M239.388 41.4192C239.388 44.3204 237.73 46.5167 235.135 46.5167C232.705 46.5167 230.995 44.3236 230.995 41.4192C230.995 38.4543 232.761 36.3215 235.189 36.3215C237.673 36.3215 239.388 38.3873 239.388 41.4192Z" fill="white"/>
<path d="M262.5 36.5792C262.5 42.3247 258.686 46.4497 251.561 46.4497C248.302 46.4497 245.374 45.549 243.388 44.2601L244.764 38.4541C246.254 39.5457 249.184 40.7745 251.618 40.7745C254.597 40.7745 255.926 39.2912 255.926 37.2321C255.926 35.0992 254.819 34.0663 251.508 32.6466C246.258 30.5841 244.105 27.2293 244.105 23.4894C244.105 17.938 248.024 13.6816 254.27 13.6816C257.25 13.6816 259.848 14.5203 261.45 15.5532L260.068 21.1013C258.964 20.3262 256.755 19.2958 254.376 19.2958C251.946 19.2958 250.624 20.7154 250.624 22.6523C250.624 24.6512 251.889 25.5544 255.315 27.0393C260.233 29.0348 262.445 31.9369 262.5 36.5792Z" fill="white"/>
<path d="M280.927 27.2277L292.302 45.8069H283.965L276.231 31.9369L273.968 35.0959V45.8069H267.174V0H273.968V28.1962H274.076C274.744 26.969 275.515 25.6146 276.177 24.5181L282.75 14.3881H290.928L280.927 27.2277Z" fill="white"/>
<path d="M23.0831 30.1632C23.0982 33.6795 12.3721 46.5719 12.3721 46.5719H0.58313C0.58313 46.5719 11.2941 32.4541 11.2941 30.1355C11.2941 27.8177 0.634118 13.7485 0.634118 13.7485H12.4199C12.4199 13.7503 23.0638 26.6451 23.0831 30.1632Z" fill="white"/>
</svg>
