<svg width="24" height="24" viewBox="0 0 24 24" fill="none" xmlns="http://www.w3.org/2000/svg">
<path fill-rule="evenodd" clip-rule="evenodd" d="M11.28 10.61C11.0003 10.9143 10.6595 11.1563 10.28 11.32C10.8621 11.5083 11.3651 11.8847 11.71 12.39C12.0501 12.9347 12.2206 13.5682 12.2 14.21C12.2134 14.9158 12.0224 15.6103 11.65 16.21C11.4214 16.5952 11.123 16.9343 10.77 17.21C10.3522 17.5194 9.87041 17.7312 9.36 17.83C8.78057 17.9459 8.1909 18.0028 7.6 18H2.75C2.33804 17.9946 2.00539 17.662 2 17.25V6.31C2 5.89579 2.33579 5.56 2.75 5.56H8C9.24391 5.43359 10.4704 5.92718 11.28 6.88C11.6684 7.43605 11.8682 8.102 11.85 8.78C11.8829 9.43828 11.6809 10.0869 11.28 10.61ZM7.19 7.72H4.87V10.46H7.5C7.96025 10.4813 8.41734 10.3739 8.82 10.15C9.17611 9.90768 9.36863 9.48799 9.32 9.06C9.37492 8.57363 9.10765 8.10794 8.66 7.91C8.18303 7.76981 7.68694 7.70569 7.19 7.72ZM8.76 15.77C8.36418 15.9455 7.9323 16.0243 7.5 16H4.87V12.5H7.54C7.96722 12.4886 8.39235 12.5634 8.79 12.72C9.31713 12.984 9.63012 13.5426 9.58 14.13C9.65275 14.7903 9.33191 15.432 8.76 15.77ZM19.5 7.5H15.5C15.2239 7.5 15 7.27614 15 7V6.5C15 6.22386 15.2239 6 15.5 6H19.5C19.7761 6 20 6.22386 20 6.5V7C20 7.27614 19.7761 7.5 19.5 7.5ZM21.86 13.74C21.9505 13.6461 22.0008 13.5205 22 13.39C22.0053 12.9653 21.9786 12.5407 21.92 12.12C21.8284 11.4601 21.5854 10.8304 21.21 10.28C20.8272 9.71701 20.2935 9.27337 19.67 9C19.0116 8.71139 18.2988 8.56813 17.58 8.58C16.3905 8.53169 15.2346 8.981 14.39 9.82C13.5167 10.7883 13.073 12.069 13.16 13.37C13.0324 14.7069 13.5352 16.0269 14.52 16.94C15.4106 17.6496 16.5216 18.0246 17.66 18C18.9093 18.0721 20.1282 17.5976 21 16.7C21.3639 16.3385 21.6379 15.8966 21.8 15.41C21.8356 15.341 21.8356 15.259 21.8 15.19C21.7551 15.1243 21.6795 15.0865 21.6 15.09H19.78C19.6124 15.0898 19.4553 15.1721 19.36 15.31C19.268 15.4572 19.1533 15.5888 19.02 15.7C18.648 15.9847 18.188 16.1298 17.72 16.11C17.2692 16.1252 16.8239 16.0069 16.44 15.77C15.8152 15.3555 15.4603 14.6381 15.51 13.89H21.51C21.6417 13.8871 21.7671 13.8333 21.86 13.74ZM16.18 11.12C15.8294 11.5007 15.6118 11.985 15.56 12.5H19.58C19.5768 11.9646 19.3524 11.4543 18.96 11.09C18.5785 10.7581 18.0854 10.583 17.58 10.6C17.0614 10.5714 16.5542 10.7598 16.18 11.12Z" fill="white"/>
</svg>
