<svg width="73" height="80" viewBox="0 0 73 80" fill="none" xmlns="http://www.w3.org/2000/svg">
<path fill-rule="evenodd" clip-rule="evenodd" d="M53.1467 53.4331C54.0112 54.5065 54.9959 55.3246 56.1005 55.8875C57.2053 56.4505 58.2538 56.7319 59.2465 56.7319C61.2317 56.7319 62.2243 56.0118 62.2243 54.5719C62.2243 53.8651 61.4238 52.9617 59.8228 51.8622C57.5174 50.2914 56.0445 49.1656 55.4041 48.485C53.7711 46.8095 52.9546 44.9375 52.9546 42.8692C52.9546 39.9109 54.0752 37.5414 56.3167 35.7612C58.4299 34.0856 61.0395 33.2478 64.1453 33.2478C65.2659 33.2478 66.4187 33.3722 67.6034 33.6209C68.7881 33.8696 69.9408 34.2428 71.0614 34.7401V43.7723C70.1328 42.6729 69.1724 41.8744 68.1796 41.3769C67.1871 40.8795 66.2426 40.6307 65.346 40.6307C64.6736 40.6307 64.1052 40.7551 63.6409 41.0038C63.1768 41.2525 62.8964 41.5602 62.8004 41.9266C62.6024 42.9685 63.585 43.851 65.1539 44.872C67.5875 46.4428 69.0763 47.5162 69.6206 48.0921C71.2216 49.7415 72.022 51.7313 72.022 54.0613C72.022 56.8103 70.9093 59.1338 68.684 61.0319C66.4587 62.9301 63.6491 63.8791 60.2549 63.8791C58.1736 63.8791 55.8042 63.4863 53.1466 62.7009V53.4331H53.1467Z" fill="white"/>
<path fill-rule="evenodd" clip-rule="evenodd" d="M20.8435 63.5877C20.113 63.858 19.3676 64.0684 18.6072 64.2188C17.6559 64.4068 16.6032 64.5007 15.4492 64.5008C11.5505 64.5008 8.27551 63.2919 5.62422 60.8742C2.53639 58.0535 0.992432 54.1178 0.992432 49.0673C0.992432 44.0168 2.50516 40.0409 5.53063 37.1396C8.30656 34.48 11.8155 33.1501 16.0574 33.1501C17.7918 33.1501 19.4974 33.3724 21.1744 33.8169V42.3957C20.6312 41.8604 20.0094 41.4448 19.3089 41.1491C18.5135 40.8132 17.648 40.6454 16.7123 40.6454C15.0904 40.6454 13.7491 41.223 12.6887 42.378C11.4099 43.7483 10.4406 45.4714 10.4406 48.0771C10.4406 50.9784 11.3631 53.4328 12.5483 54.9103C13.6088 56.2535 15.0279 56.9251 16.8058 56.9251C18.2623 56.9251 19.6091 56.3549 21.4681 54.6496L20.8435 63.5877Z" fill="white"/>
<path fill-rule="evenodd" clip-rule="evenodd" d="M29.2424 2.21913C30.9569 -0.320567 32.7757 -0.335321 34.061 0.475216C35.3714 1.30154 36.1164 3.00213 34.4834 5.50905L20.0148 25.7687C17.5061 29.2816 11.9977 29.3373 9.19391 25.9932L1.83809 17.2198C-2.7008 11.8063 3.39054 8.01778 7.00917 12.4667L13.3639 20.2795C13.695 20.6865 14.1738 21.0531 14.7291 20.9927C15.4744 20.9117 15.6475 20.747 16.4688 19.6276L29.2424 2.21913Z" fill="white"/>
<path fill-rule="evenodd" clip-rule="evenodd" d="M35.5148 53.2978H39.5523L37.7019 41.1852L35.5148 53.2978ZM51.6312 63.5935H41.4034L40.6965 59.9259H34.4043L33.6641 63.5935H23.4358L32.0831 33.6149H43.5902L51.6312 63.5935Z" fill="white"/>
<path fill-rule="evenodd" clip-rule="evenodd" d="M38.5158 71.8473H37.475L37.9191 70.4404H39.5819L38.5158 71.8473ZM39.0733 78.7244C38.9724 79.1894 38.8078 79.5709 38.63 79.7375C38.4652 79.8928 38.0967 80 37.7666 80H36.4087V78.7245L36.5865 78.7361H36.7518C36.9541 78.7361 37.0815 78.6407 37.0815 78.4979C37.0815 78.4625 37.0687 78.3673 37.0432 78.2593L35.8377 72.4064H37.5892L38.1221 76.4836L38.6428 72.4064H40.3681L39.0733 78.7244ZM35.3808 78.4857H33.7309V70.5344H35.3808V78.4857ZM31.421 74.3252V74.0872C31.421 73.6459 31.2432 73.3956 30.9511 73.3956C30.7231 73.3956 30.5707 73.5386 30.5707 73.7532C30.5707 73.9797 30.6468 74.0872 31.0786 74.4209C31.1801 74.4924 31.1801 74.4924 31.3446 74.6235C31.675 74.8977 31.675 74.8977 32.2078 75.3266C32.7666 75.7917 33.033 76.3519 33.033 77.0079C33.033 78.081 32.3858 78.6048 31.0657 78.6048C29.6567 78.6048 28.9586 77.9735 28.9586 76.6857V76.3873H30.5457V76.8527C30.5457 77.2462 30.7103 77.4848 31.0024 77.4848C31.2685 77.4848 31.4338 77.3055 31.4338 77.0078C31.4338 76.6021 31.3446 76.5186 29.9359 75.4219C29.2127 74.8619 28.9586 74.4446 28.9586 73.8009C28.9586 72.8352 29.7075 72.2869 31.0024 72.2869C32.2967 72.2869 32.9566 72.8829 32.9566 74.0751V74.3252H31.421ZM28.2483 78.4857H26.5982V72.4062H28.2483V78.4857ZM28.2483 72.0245H26.5982V70.5344H28.2483V72.0245ZM24.9228 78.4857H22.9807L21.6989 72.4062H23.4124L23.9327 76.3402L24.4153 72.4062H26.1413L24.9228 78.4857ZM19.6433 75.4457C19.1483 75.7561 19.0213 75.875 18.9324 76.0181C18.8435 76.1729 18.793 76.6141 18.793 77.1509C18.793 77.4608 18.9324 77.6752 19.1483 77.6752C19.4657 77.6752 19.6433 77.3178 19.6433 76.6977V75.4457ZM19.6688 71.8473H18.6282L19.0721 70.4404H20.7347L19.6688 71.8473ZM17.2447 74.3732V74.1346C17.2447 73.4072 17.3462 73.0022 17.6 72.7401C17.8794 72.4418 18.425 72.287 19.1228 72.287C19.9986 72.287 20.6714 72.5137 21.0014 72.9307C21.2046 73.1813 21.255 73.36 21.255 73.8725V78.4857H19.6434V77.8541C19.4152 78.3904 19.0848 78.6049 18.4758 78.6049C17.5109 78.6049 17.1302 78.1636 17.1302 77.0553C17.1302 75.6727 17.3717 75.3151 18.5897 74.8621C19.4658 74.5402 19.6434 74.3733 19.6434 73.8844C19.6434 73.503 19.5291 73.3482 19.2375 73.3482C18.9452 73.3482 18.8184 73.5506 18.8184 74.0516V74.3733H17.2447V74.3732ZM16.5844 73.8368L14.3257 77.234H16.5844V78.4857H12.5105V77.0439L14.7441 73.6459H12.5991V72.4062H16.5844V73.8368V73.8368ZM10.4037 73.8963C10.4037 73.4791 10.2894 73.3359 9.9851 73.3359C9.67998 73.3359 9.52763 73.5148 9.52763 73.8963V74.5879H10.4037V73.8963ZM11.9773 76.2089V76.5665C11.9773 77.9376 11.3173 78.6049 9.95928 78.6049C9.2105 78.6049 8.63921 78.3904 8.28391 77.9855C8.04304 77.6991 7.89035 77.3297 7.89035 76.9957V74.3017C7.89035 73.7652 7.9926 73.2762 8.14434 73.0378C8.46147 72.5613 9.10894 72.287 9.88311 72.287C10.7591 72.287 11.4951 72.6084 11.774 73.1097C11.9139 73.3717 11.9773 73.7412 11.9773 74.3017V75.6842H9.50233V76.8766C9.50233 77.2817 9.62928 77.4608 9.92111 77.4608C10.2892 77.4608 10.4036 77.234 10.4036 76.4591V76.2089H11.9773V76.2089ZM6.92601 78.4857H4.88315L3.66473 74.1585V78.4857H1.88745V70.5344H3.89299L5.11124 74.7907V70.5344H6.92609V78.4857H6.92601Z" fill="white"/>
<path fill-rule="evenodd" clip-rule="evenodd" d="M65.264 71.8473H64.2975L64.7254 70.4404H66.254L65.264 71.8473ZM65.7035 78.4857H64.1145V72.4062H65.7035V78.4857ZM60.8144 73.0142C61.2173 72.4656 61.5108 72.2869 62.0124 72.2869C62.5009 72.2869 62.893 72.5136 63.0876 72.8948C63.1982 73.1096 63.2346 73.348 63.2346 73.7889V78.4857H61.6578V74.3732C61.6578 73.8604 61.5597 73.6698 61.3039 73.6698C61.0096 73.6698 60.8144 73.9558 60.8144 74.3732V78.4857H59.2254V72.4062H60.8143V73.0142H60.8144ZM55.9248 73.0142C56.3283 72.4656 56.6227 72.2869 57.1234 72.2869C57.6128 72.2869 58.0022 72.5136 58.1993 72.8948C58.3091 73.1096 58.345 73.348 58.345 73.7889V78.4857H56.7693V74.3732C56.7693 73.8604 56.6712 73.6698 56.4138 73.6698C56.1215 73.6698 55.9248 73.9558 55.9248 74.3732V78.4857H54.3355V72.4062H55.9248V73.0142V73.0142ZM52.0006 73.8963C52.0006 73.4791 51.8908 73.3359 51.598 73.3359C51.3043 73.3359 51.1576 73.5148 51.1576 73.8963V74.5879H52.0006V73.8963ZM53.5176 76.2089V76.5665C53.5176 77.9376 52.8815 78.6049 51.5738 78.6049C50.8516 78.6049 50.3014 78.3904 49.9596 77.9855C49.7275 77.6991 49.5803 77.3297 49.5803 76.9957V74.3017C49.5803 73.7652 49.6784 73.2762 49.8251 73.0378C50.1307 72.5613 50.754 72.287 51.4999 72.287C52.3435 72.287 53.0524 72.6084 53.3214 73.1097C53.4564 73.3717 53.5176 73.7412 53.5176 74.3017V75.6842H51.1332V76.8766C51.1332 77.2817 51.2551 77.4608 51.5368 77.4608C51.8907 77.4608 52.0005 77.234 52.0005 76.4591V76.2089H53.5176V76.2089ZM46.3288 76.376C46.3288 77.1626 46.4025 77.3656 46.7202 77.3656C46.9765 77.3656 47.1844 77.1029 47.1844 76.7815V74.3849C47.1844 73.92 46.965 73.5623 46.6712 73.5623C46.4026 73.5623 46.3289 73.7294 46.3289 74.3849V76.376H46.3288ZM48.7611 70.5344V78.4857H47.1843V77.9495C46.8547 78.4024 46.4879 78.6049 46.0116 78.6049C45.4608 78.6049 45.0579 78.3549 44.8621 77.8781C44.7767 77.6635 44.7161 77.1508 44.7161 76.626V74.0633C44.7161 73.4194 44.7641 73.1333 44.9108 72.8587C45.119 72.5016 45.5226 72.2869 46.0234 72.2869C46.4998 72.2869 46.8304 72.4775 47.1844 72.9426V70.5344H48.7611ZM69.8234 75.1478L70.8135 78.4857H69.1878L68.1971 75.3266V78.4857H66.596V70.5344H68.1971V75.1001L69.0895 72.4063H70.7406L69.8234 75.1478Z" fill="white"/>
<path fill-rule="evenodd" clip-rule="evenodd" d="M53.4103 11.8122H56.775L57.7506 23.0838L58.7937 11.8122H62.0909L59.6347 27.3568H55.6304L53.4103 11.8122ZM62.36 11.8122H65.7923L66.5322 17.1958L67.5414 11.8122H71.0411L68.282 21.0987V27.3568H64.9847V21.0987L62.36 11.8122ZM66.9358 7.50562H70.2336L67.9119 10.7694H65.9943L66.9358 7.50562ZM44.3873 15.879C44.3873 13.5651 46.2631 11.6894 48.5769 11.6894C50.8911 11.6894 52.7669 13.5651 52.7669 15.879V23.439C52.7669 25.7529 50.8911 27.6287 48.5769 27.6287C46.2631 27.6287 44.3873 25.7529 44.3873 23.439V15.879ZM47.6303 24.0024V15.3191C47.6321 14.7943 48.0552 14.3724 48.5768 14.3724C49.0987 14.3724 49.5217 14.7944 49.5236 15.3156L49.5235 23.999C49.5218 24.5238 49.0987 24.9456 48.5768 24.9456C48.0554 24.9456 47.6322 24.5237 47.6303 24.0024ZM33.9624 11.8122H37.3606L40.0186 21.0987V11.8122H43.1814V27.3568H39.615L36.9568 18.0032V27.3568H33.9624V11.8122V11.8122Z" fill="white"/>
</svg>
