<svg width="219" height="60" viewBox="0 0 219 60" fill="none" xmlns="http://www.w3.org/2000/svg">
<path fill-rule="evenodd" clip-rule="evenodd" d="M89.722 28.4803V28.1907C89.722 25.0893 89.0769 22.7636 88.075 21.0184C84.4888 14.751 76.2836 15.9145 76.2836 15.9145V40.4979C76.2836 40.4979 89.5616 42.3712 89.722 28.4803ZM101.837 28.4492V46.8287H121.09V40.4979H109.202V30.4194H120.702V24.0551H109.202V15.9145H121.122V9.55141H101.869V21.0507L101.837 28.4492ZM127.421 9.51785V46.8287H134.755V30.2255L146.739 46.8287H156.269L142.346 28.4492L141.15 26.8656L145.867 21.0507L155.267 9.51785H146.351L137.759 21.0507L134.755 25.0893V9.51785H127.421ZM166.994 15.4943V26.6394H168.738C174.423 26.6394 174.775 21.7617 174.775 21.0507V20.9537C174.775 20.9537 175.037 15.462 168.738 15.4943H166.994ZM196.861 32.9614L201.612 19.4795L206.235 32.9614H196.861ZM205.72 12.9312C203.538 7.15236 199.676 7.32514 197.503 12.9312C195.278 18.6703 185.788 43.8417 184.755 46.5826L174.423 31.2585C174.423 31.2585 177.072 30.7426 179.236 28.4803C180.658 26.9302 181.885 24.6045 181.885 21.0507V21.0184C181.885 21.0184 182.79 9.51785 169.9 9.51785H159.66V46.8287H166.994V31.8402L176.135 46.8287H191.981L194.807 38.9963H207.904L210.986 46.8287H218.433C218.433 46.8287 207.904 18.7088 205.72 12.9312ZM68.8217 46.8287V9.51785H79.0294C89.9482 9.51785 94.3423 15.7852 96.1186 21.0507C97.3144 24.6368 97.3144 27.7382 97.3144 28.1907V28.4169C97.2809 30.7426 96.5388 46.8946 79.0294 46.8287H68.8217Z" fill="white"/>
<path fill-rule="evenodd" clip-rule="evenodd" d="M0 60V49.0427L38.0082 26.6147L17.4634 14.4591V31.9224L8.04739 37.0586V3.50173C8.04739 0.248719 10.1021 -0.779263 12.4987 0.591801C14.8953 1.96038 34.4295 13.2334 41.9461 17.7121C49.9935 22.5052 49.3086 31.7509 41.9461 35.8603C34.5836 39.9685 0 60 0 60Z" fill="white"/>
</svg>
