<svg width="277" height="40" viewBox="0 0 277 40" fill="none" xmlns="http://www.w3.org/2000/svg">
<path d="M95.5924 12.8471C94.9038 13.3426 94.2963 13.9511 93.6538 14.5105C93.4966 14.6475 93.3432 14.7885 93.1881 14.9278C93.1367 14.9071 93.0852 14.8866 93.0338 14.866C93.0338 14.3161 93.0338 13.7663 93.0338 13.2203C90.5225 13.2203 88.1085 13.2203 85.6511 13.2203C85.6511 21.6535 85.6511 30.0101 85.6511 38.3886C88.1116 38.3886 90.5393 38.3886 93.0256 38.3886C93.0256 38.1065 93.0256 37.8669 93.0256 37.6271C93.0256 32.2345 93.0255 26.8417 93.0256 21.449C93.0256 20.2173 93.2364 19.9455 94.4617 19.7266C94.8348 19.6599 95.2377 19.6318 95.6067 19.6981C96.4938 19.8574 97.369 20.0832 98.2489 20.2823C98.5757 17.9923 98.9045 15.7026 99.2221 13.4113C99.2353 13.316 99.1713 13.1751 99.0964 13.1078C98.3191 12.4095 96.4481 12.2315 95.5924 12.8471Z" fill="white"/>
<path d="M144.53 31.1841C143.393 31.7477 142.343 32.3735 141.218 32.8047C138.7 33.7699 137.089 33.1793 135.975 30.9462C135.097 29.1885 134.712 27.304 134.768 25.342C134.822 23.4243 135.219 21.5884 136.298 19.9626C136.987 18.923 137.935 18.3699 139.236 18.4862C140.532 18.602 141.745 18.946 142.897 19.5502C143.051 19.631 143.403 19.6092 143.492 19.498C144.514 18.2122 145.502 16.8998 146.535 15.5487C145.519 14.5559 144.37 13.9198 143.154 13.3897C138.61 11.408 133.599 12.5766 130.578 16.32C126.522 21.3465 126.27 29.518 130.057 34.7435C131.998 37.4213 134.605 39.0011 137.965 39.1699C141.338 39.3395 144.168 37.9673 146.768 35.9879C146.884 35.9003 146.984 35.6121 146.927 35.506C146.128 34.027 145.301 32.5633 144.53 31.1841Z" fill="white"/>
<path d="M51.7412 14.7179C49.0783 12.037 45.4355 10.6606 43.2303 10.5796C43.8266 11.106 44.5798 11.6894 45.2363 12.3665C46.7826 13.9613 47.5261 15.966 48.0668 18.0774C48.8103 20.9807 49.4755 23.8915 48.8473 26.9024C48.1315 30.3326 45.9806 32.5624 42.7021 33.5699C41.3999 33.9701 39.9233 34.0006 38.5447 33.9116C36.0112 33.748 33.367 31.5877 33.901 28.308C34.2315 26.2781 35.9815 25.0755 37.585 25.2275C38.7103 25.3341 39.7637 26.4398 39.6093 27.5318C39.4001 27.4248 39.2017 27.3533 39.0398 27.2327C38.8621 27.1003 38.7168 26.924 38.5598 26.7645C38.0328 26.2292 37.3527 26.098 36.701 26.316C36.051 26.5336 36.019 27.2129 35.9862 27.8089C35.9741 28.0306 35.9867 28.2603 36.0326 28.4769C36.2797 29.641 36.8232 30.6159 38.0676 30.8809C39.1873 31.1195 40.3415 31.2178 41.2268 30.2032C42.3713 28.8913 42.7133 27.2588 43.0583 25.6291C43.0901 25.4787 43.0402 25.307 43.0116 25.1482C42.8122 24.0401 42.2351 23.1428 41.3946 22.4267C40.2027 21.411 38.9761 20.4361 37.7699 19.437C36.1945 18.1316 35.2638 16.4831 35.3972 14.407C35.4609 13.4149 35.7972 12.4404 36.0138 11.4401C29.8675 13.5613 25.3206 20.5073 26.7823 28.0206C28.2914 35.7778 35.7044 41.2421 43.9622 39.7552C51.3276 38.4291 56.8744 31.6985 55.993 23.4785C55.6284 20.0782 54.1587 17.1516 51.7412 14.7179Z" fill="white"/>
<path d="M22.401 33.1674C22.3869 32.6592 22.3462 32.1512 22.346 31.643C22.3426 22.2584 22.3435 12.8738 22.3435 3.48914C22.3435 3.21098 22.3435 2.93294 22.3435 2.63818C19.8538 2.63818 17.4488 2.63818 14.9875 2.63818C14.9875 6.16689 14.9875 9.64112 14.9875 13.1675C14.7689 13.1207 14.6096 13.1045 14.4633 13.0523C12.7204 12.4298 10.9347 12.2901 9.11291 12.5779C6.25096 13.0303 3.85025 14.3298 2.42126 16.8821C-0.344652 21.8224 -0.67005 27.0525 1.1917 32.3658C2.18178 35.1914 4.00545 37.4101 6.8656 38.57C9.70011 39.7197 12.406 39.5538 14.7999 37.4787C15.3369 37.0132 15.7344 36.3871 16.2078 35.8209C16.2473 35.8984 16.3066 35.983 16.3362 36.0768C17.1169 38.5566 19.2788 39.5854 21.895 39.2008C22.0329 39.1806 22.2359 39.0918 22.2747 38.9858C22.7616 37.6577 23.2237 36.3205 23.7091 34.9376C22.6552 34.7432 22.4249 34.0275 22.401 33.1674ZM14.635 29.1516C14.4819 30.3219 13.9975 31.42 13.1112 32.2802C11.7075 33.6427 9.56147 33.3405 8.59104 31.64C7.95868 30.5318 7.71396 29.2962 7.69828 28.0642C7.67252 26.0363 7.79264 24.0051 7.89832 21.9779C7.922 21.5237 8.10276 21.065 8.2752 20.634C8.87815 19.1271 9.91879 18.4019 11.534 18.5024C12.5169 18.5635 13.4879 18.8209 14.4636 18.9935C14.9065 19.0719 15.0261 19.3438 15.015 19.7806C14.9861 20.9198 15.0053 22.0603 15.0053 23.2001C15.0536 23.2041 15.1019 23.208 15.1502 23.212C14.987 25.193 14.8927 27.1831 14.635 29.1516Z" fill="white"/>
<path d="M41.5519 6.59501C40.5019 5.72029 40.1304 4.56409 40.1328 3.24294C40.1351 1.93882 40.7307 1.46135 42.036 1.72426C42.4045 1.79858 42.7776 1.8513 43.3162 1.94206C43.0979 1.63479 42.9943 1.44263 42.8484 1.29115C42.0489 0.46119 41.0462 0.053951 39.9142 0.00483122C38.7418 -0.0460086 38.2755 0.29611 37.991 1.42571C37.844 2.00934 37.7308 2.62866 37.7602 3.22414C37.8264 4.56521 37.7058 5.83701 37.0541 7.04976C36.7914 7.53856 36.6861 8.12008 36.5597 8.67104C36.4813 9.01232 36.4978 9.3754 36.4607 9.87855C38.6874 8.72568 40.981 8.35972 43.3795 8.14088C42.6989 7.56468 42.1289 7.07573 41.5519 6.59501Z" fill="white"/>
<path d="M123.304 32.2145C123.339 26.1301 123.32 20.0454 123.32 13.9608C123.32 13.7237 123.32 13.4866 123.32 13.2344C120.813 13.2344 118.386 13.2344 115.913 13.2344C115.913 13.5226 115.913 13.7637 115.913 14.0049C115.913 19.5198 115.916 25.0346 115.902 30.5494C115.902 30.8022 115.824 31.1948 115.656 31.2846C114.477 31.9136 113.318 32.663 112.052 33.0231C110.152 33.5641 109.507 32.8961 109.518 31.1107C109.553 25.3925 109.531 19.6742 109.531 13.9558C109.531 13.7185 109.531 13.4811 109.531 13.2372C107.048 13.2372 104.642 13.2372 102.193 13.2372C102.193 13.5503 102.193 13.8133 102.193 14.0764C102.193 18.2075 102.189 22.3385 102.194 26.4695C102.197 28.545 102.164 30.6223 102.237 32.6955C102.363 36.251 104.47 38.5018 107.961 39.0584C110.448 39.4549 112.727 38.9596 114.884 37.7426C115.728 37.2662 116.549 36.7487 117.4 36.2381C117.501 36.3603 117.591 36.4669 117.679 36.5745C118.731 37.855 120.028 38.751 121.665 39.1087C121.957 39.1726 122.232 39.2594 122.448 38.8853C123.117 37.7255 123.826 36.5885 124.576 35.3501C123.416 34.5755 123.297 33.4576 123.304 32.2145Z" fill="white"/>
<path d="M248.898 25.7543C247.867 24.9176 246.702 24.211 245.517 23.6045C243.727 22.6886 241.857 21.931 240.039 21.0697C239.17 20.6582 238.863 20.1248 239.003 19.4006C239.157 18.6047 239.799 18.3917 240.481 18.2477C241.464 18.0403 242.447 18.1115 243.363 18.4729C244.566 18.9477 245.724 19.5364 247.005 20.1242C248.164 19.0582 249.43 17.8941 250.779 16.6531C250.126 16.0514 249.554 15.4459 248.905 14.9383C245.983 12.6532 242.651 12.0459 239.056 12.6411C236.871 13.0029 234.934 13.8697 233.431 15.5592C231.074 18.2071 230.682 22.8971 234.322 25.442C235.84 26.5037 237.571 27.2681 239.228 28.1233C240.472 28.7654 241.775 29.294 243.008 29.9556C243.718 30.3367 244.209 30.9612 244.012 31.8636C243.827 32.7128 243.191 33.073 242.408 33.2504C241.297 33.5018 240.21 33.39 239.188 32.9249C237.786 32.2874 236.415 31.5833 234.965 30.8758C234.101 32.4605 233.228 34.0607 232.331 35.706C235.352 37.7576 238.421 39.4929 242.226 39.1655C244.715 38.9513 247.012 38.2617 248.908 36.5435C251.82 33.9057 252.428 28.6163 248.898 25.7543Z" fill="white"/>
<path d="M276.022 35.4776C276.018 35.2946 275.903 35.0875 275.782 34.9378C272.93 31.415 270.075 27.8955 267.206 24.3866C266.957 24.0821 266.912 23.893 267.185 23.5645C269.046 21.3314 270.883 19.0787 272.727 16.832C273.701 15.6456 274.674 14.4588 275.717 13.1871C275.403 13.1871 275.205 13.1871 275.007 13.1871C272.748 13.1871 270.489 13.2115 268.23 13.1704C267.647 13.1598 267.304 13.3748 266.973 13.8074C265.628 15.5666 264.261 17.3092 262.894 19.0527C262.771 19.2097 262.599 19.3276 262.312 19.5884C262.312 13.8066 262.312 8.22307 262.312 2.63269C259.832 2.63269 257.424 2.63269 254.989 2.63269C254.989 14.5783 254.989 26.4746 254.989 38.3992C257.439 38.3992 259.85 38.3992 262.335 38.3992C262.335 35.2693 262.335 32.1709 262.335 29.0726C262.394 29.0508 262.453 29.0291 262.512 29.0072C262.624 29.1414 262.742 29.2706 262.846 29.4106C264.915 32.2018 266.992 34.9866 269.038 37.7944C269.384 38.2691 269.739 38.4639 270.336 38.4476C272.004 38.4019 273.673 38.4317 275.342 38.4317C275.557 38.4317 275.772 38.4317 276.034 38.4317C276.034 37.3858 276.046 36.4312 276.022 35.4776Z" fill="white"/>
<path d="M222.399 31.0951C220.631 31.6204 219.282 33.0832 219.119 34.6515C218.86 37.1445 220.82 39.1916 223.57 39.1877C224.59 39.2206 225.592 38.8368 226.449 38.147C227.647 37.1838 228.319 35.9309 228.047 34.3588C227.612 31.8456 224.954 30.3355 222.399 31.0951Z" fill="white"/>
<path d="M214.345 32.9351C212.558 33.4705 211.731 32.861 211.73 30.9981C211.726 27.2323 211.728 23.4664 211.73 19.7005C211.731 19.4868 211.754 19.2729 211.77 18.9958C213.149 18.9958 214.462 18.9958 215.783 18.9958C215.783 17.0289 215.783 15.1307 215.783 13.1639C214.376 13.1639 213.024 13.1639 211.612 13.1639C211.612 11.6393 211.612 10.1831 211.612 8.6969C209.242 8.6969 206.934 8.6969 204.53 8.6969C204.53 10.2025 204.53 11.6734 204.53 13.1956C203.69 13.1956 202.944 13.1956 202.125 13.1956C202.125 14.4639 202.125 15.679 202.125 16.8942C202.125 18.4755 202.122 18.4911 203.674 18.8604C204.162 18.9766 204.356 19.1636 204.352 19.7081C204.325 23.7995 204.331 27.8911 204.343 31.9825C204.346 32.6714 204.387 33.3663 204.484 34.0477C204.886 36.8599 206.767 38.8055 209.385 39.14C211.967 39.4698 214.326 38.7459 216.638 37.5833C216.127 35.9582 215.618 34.3402 215.098 32.6885C214.803 32.7856 214.576 32.866 214.345 32.9351Z" fill="white"/>
<path d="M171.437 18.8122C171.336 17.1746 170.886 15.6264 169.679 14.4402C167.757 12.5514 165.339 12.2449 162.82 12.5463C161.363 12.7207 160.129 13.5406 158.92 14.338C158.573 14.5665 158.222 14.7889 157.766 15.0832C157.766 10.8493 157.766 6.75212 157.766 2.62354C155.27 2.62354 152.84 2.62354 150.389 2.62354C150.389 14.559 150.389 26.4543 150.389 38.3973C152.877 38.3973 155.29 38.3973 157.765 38.3973C157.765 38.0232 157.765 37.6825 157.765 37.3418C157.765 31.9694 157.763 26.5969 157.772 21.2245C157.773 20.9788 157.795 20.6148 157.949 20.5067C159.127 19.6784 160.298 18.8347 161.784 18.5932C163.618 18.2953 164.151 18.7084 164.151 20.5381C164.152 26.2565 164.152 31.975 164.152 37.6934C164.152 37.9278 164.152 38.162 164.152 38.4096C166.646 38.4096 169.043 38.4096 171.493 38.4096C171.505 38.1312 171.528 37.8718 171.528 37.6125C171.53 32.7487 171.535 27.885 171.526 23.0213C171.523 21.618 171.523 20.2119 171.437 18.8122Z" fill="white"/>
<path d="M198.303 32.1581C198.335 26.0939 198.317 20.0295 198.317 13.9651C198.317 13.7275 198.317 13.49 198.317 13.2328C195.813 13.2328 193.386 13.2328 190.91 13.2328C190.91 13.5186 190.91 13.7597 190.91 14.0007C190.91 19.5156 190.913 25.0305 190.9 30.5454C190.899 30.8003 190.827 31.2004 190.661 31.2861C189.421 31.9257 188.202 32.7021 186.876 33.0525C184.975 33.5543 184.52 32.7439 184.526 31.1741C184.546 25.4761 184.534 19.778 184.534 14.0801C184.534 13.8165 184.534 13.5529 184.534 13.2346C182.049 13.2346 179.642 13.2346 177.19 13.2346C177.19 13.5246 177.19 13.7672 177.19 14.0099C177.19 16.3094 177.186 18.609 177.191 20.9086C177.198 24.8157 177.16 28.7237 177.237 32.6294C177.308 36.2147 179.455 38.5045 182.955 39.0584C185.442 39.4521 187.721 38.9625 189.878 37.745C190.722 37.2682 191.544 36.751 192.398 36.2389C192.497 36.3565 192.587 36.462 192.675 36.5691C193.727 37.8489 195.02 38.7575 196.662 39.0971C196.882 39.1428 197.265 39.1141 197.353 38.9779C198.112 37.805 198.82 36.5994 199.576 35.3509C198.388 34.5648 198.296 33.4138 198.303 32.1581Z" fill="white"/>
<path fill-rule="evenodd" clip-rule="evenodd" d="M59.8328 2.6239C62.2845 2.6239 64.6754 2.6239 67.1564 2.6239C67.1564 6.73473 67.1564 10.8292 67.1564 15.0654C67.4032 14.8954 67.5307 14.8205 67.6434 14.7277C68.0355 14.4049 68.4106 14.0605 68.8131 13.7517C71.348 11.8065 73.9665 12.1642 76.5167 13.6315C79.1013 15.1185 80.5479 17.5318 81.1792 20.36C82.3333 25.5296 81.779 30.4868 78.7169 34.9468C76.8841 37.6162 74.1916 38.8961 71.0079 39.156C66.9242 39.4894 63.4025 37.9698 60.1107 35.7509C59.9711 35.6568 59.8997 35.4336 59.8419 35.2559C59.7999 35.1269 59.8328 34.9735 59.8328 34.831C59.8328 24.3485 59.8328 13.866 59.8328 3.3835C59.8328 3.14334 59.8328 2.90326 59.8328 2.6239ZM67.1631 26.6632C67.163 25.2598 67.2564 23.8481 67.1354 22.4551C67.0259 21.194 67.6323 20.3586 68.4448 19.6002C69.7921 18.3426 71.3994 18.0974 72.5822 19.0639C73.099 19.4864 73.5111 20.1528 73.7389 20.7912C74.408 22.6667 74.359 24.6404 74.1788 26.5844C74.0578 27.8893 73.8163 29.2049 73.4391 30.4587C72.9916 31.9467 72.0271 33.0319 70.3458 33.1747C69.3242 33.2614 68.363 32.9831 67.5102 32.424C67.3229 32.3013 67.1823 31.9672 67.1782 31.7278C67.1501 30.04 67.1632 28.3516 67.1631 26.6632Z" fill="white"/>
<path fill-rule="evenodd" clip-rule="evenodd" d="M150.389 38.3974C150.389 26.4544 150.389 14.5591 150.389 2.62366C152.84 2.62366 155.27 2.62366 157.766 2.62366C157.766 6.75224 157.766 10.8495 157.766 15.0834C158.222 14.789 158.573 14.5667 158.92 14.3381C160.129 13.5407 161.363 12.7207 162.82 12.5464C165.339 12.2451 167.757 12.5515 169.679 14.4403C170.886 15.6266 171.336 17.1748 171.437 18.8124C171.523 20.212 171.523 21.6181 171.526 23.0215C171.535 27.8852 171.53 32.7489 171.528 37.6126C171.528 37.8719 171.505 38.1314 171.493 38.4098C169.043 38.4098 166.646 38.4098 164.152 38.4098C164.152 38.1622 164.152 37.9279 164.152 37.6935C164.152 31.9751 164.152 26.2566 164.151 20.5383C164.151 18.7086 163.618 18.2954 161.784 18.5934C160.298 18.8348 159.127 19.6785 157.949 20.5069C157.796 20.615 157.773 20.979 157.772 21.2246C157.763 26.5971 157.765 31.9695 157.765 37.342C157.765 37.6827 157.765 38.0234 157.765 38.3974C155.29 38.3974 152.877 38.3974 150.389 38.3974Z" fill="white"/>
<path fill-rule="evenodd" clip-rule="evenodd" d="M36.0138 11.4403C35.7972 12.4405 35.4609 13.4151 35.3972 14.4071C35.2638 16.4832 36.1945 18.1317 37.7699 19.4371C38.9761 20.4362 40.2027 21.4112 41.3946 22.4268C42.2351 23.1429 42.8122 24.0402 43.0116 25.1483C43.0402 25.3071 43.0901 25.4788 43.0583 25.6292C42.7133 27.2589 42.3713 28.8914 41.2268 30.2033C40.3415 31.2179 39.1873 31.1196 38.0676 30.881C36.8232 30.616 36.2797 29.6411 36.0326 28.477C35.9867 28.2604 35.9741 28.0307 35.9862 27.809C36.019 27.213 36.051 26.5337 36.701 26.3161C37.3527 26.0981 38.0328 26.2293 38.5598 26.7647C38.7168 26.9241 38.8622 27.1005 39.0398 27.2328C39.2016 27.3534 39.4001 27.425 39.6093 27.5319C39.7636 26.4399 38.7103 25.3342 37.585 25.2276C35.9815 25.0756 34.2315 26.2783 33.901 28.3081C33.367 31.5878 36.0112 33.7481 38.5447 33.9117C39.9233 34.0007 41.3999 33.9703 42.7021 33.5701C45.9806 32.5625 48.1316 30.3326 48.8473 26.9025C49.4756 23.8917 48.8103 20.9808 48.0668 18.0775C47.5261 15.9661 46.7826 13.9615 45.2363 12.3667C44.5798 11.6895 43.8266 11.1061 43.2303 10.5797C45.4355 10.6607 49.0783 12.0371 51.7412 14.718C54.1587 17.1518 55.6284 20.0784 55.993 23.4786C56.8744 31.6986 51.3276 38.4292 43.9622 39.7554C35.7044 41.2422 28.2914 35.7779 26.7823 28.0208C25.3206 20.5074 29.8675 13.5613 36.0138 11.4403Z" fill="white"/>
<path fill-rule="evenodd" clip-rule="evenodd" d="M262.335 29.0726C262.335 32.1709 262.335 35.2693 262.335 38.3992C259.85 38.3992 257.439 38.3992 254.989 38.3992C254.989 26.4746 254.989 14.5783 254.989 2.63269C257.424 2.63269 259.832 2.63269 262.312 2.63269C262.312 8.22307 262.312 13.8065 262.312 19.5884C262.599 19.3276 262.771 19.2097 262.894 19.0527C264.261 17.3093 265.628 15.5667 266.973 13.8074C267.304 13.3749 267.647 13.1598 268.23 13.1704C270.489 13.2116 272.748 13.1871 275.007 13.1871C275.205 13.1871 275.403 13.1871 275.717 13.1871C274.674 14.4588 273.701 15.6456 272.727 16.832C270.883 19.0787 269.046 21.3314 267.185 23.5645C266.912 23.893 266.957 24.0821 267.206 24.3866C270.075 27.8955 272.93 31.415 275.782 34.9378C275.903 35.0875 276.018 35.2946 276.022 35.4777C276.046 36.4312 276.034 37.3858 276.034 38.4317C275.772 38.4317 275.557 38.4317 275.342 38.4317C273.673 38.4317 272.004 38.4019 270.336 38.4475C269.739 38.4639 269.384 38.2691 269.038 37.7944C266.992 34.9866 264.915 32.2018 262.846 29.4106C262.742 29.2706 262.624 29.1414 262.512 29.0072C262.453 29.0291 262.394 29.0508 262.335 29.0726Z" fill="white"/>
<path fill-rule="evenodd" clip-rule="evenodd" d="M184.534 13.2347C184.534 13.5531 184.534 13.8165 184.534 14.0802C184.534 19.7782 184.546 25.4763 184.526 31.1742C184.52 32.744 184.975 33.5544 186.876 33.0526C188.202 32.7022 189.421 31.9258 190.661 31.2862C190.827 31.2005 190.899 30.8004 190.9 30.5455C190.913 25.0306 190.91 19.5157 190.91 14.0009C190.91 13.7598 190.91 13.5187 190.91 13.2329C193.386 13.2329 195.813 13.2329 198.317 13.2329C198.317 13.4901 198.317 13.7277 198.317 13.9652C198.317 20.0296 198.334 26.094 198.303 32.1582C198.296 33.4139 198.388 34.565 199.576 35.351C198.82 36.5995 198.112 37.8051 197.353 38.978C197.265 39.1142 196.882 39.1429 196.662 39.0972C195.02 38.7576 193.727 37.849 192.675 36.5693C192.587 36.4621 192.497 36.3567 192.398 36.2391C191.544 36.7512 190.722 37.2683 189.878 37.7451C187.721 38.9626 185.442 39.4522 182.955 39.0585C179.455 38.5046 177.308 36.2148 177.237 32.6296C177.16 28.7238 177.198 24.8157 177.191 20.9087C177.186 18.6092 177.19 16.3096 177.19 14.01C177.19 13.7673 177.19 13.5247 177.19 13.2347C179.642 13.2347 182.049 13.2347 184.534 13.2347Z" fill="white"/>
<path fill-rule="evenodd" clip-rule="evenodd" d="M124.576 35.3503C123.826 36.5887 123.117 37.7256 122.448 38.8854C122.232 39.2595 121.958 39.1728 121.666 39.1088C120.029 38.7511 118.731 37.855 117.68 36.5746C117.591 36.467 117.502 36.3604 117.4 36.2382C116.549 36.7488 115.728 37.2663 114.884 37.7427C112.728 38.9598 110.448 39.455 107.961 39.0585C104.47 38.502 102.363 36.2511 102.238 32.6957C102.164 30.6224 102.197 28.5451 102.195 26.4696C102.19 22.3386 102.193 18.2076 102.193 14.0765C102.193 13.8135 102.193 13.5505 102.193 13.2373C104.642 13.2373 107.048 13.2373 109.531 13.2373C109.531 13.4813 109.531 13.7187 109.531 13.9559C109.531 19.6743 109.553 25.3927 109.518 31.1108C109.507 32.8962 110.152 33.5642 112.053 33.0232C113.318 32.6631 114.478 31.9137 115.656 31.2847C115.824 31.1949 115.902 30.8023 115.902 30.5496C115.916 25.0347 115.913 19.5199 115.913 14.0051C115.913 13.7639 115.913 13.5227 115.913 13.2345C118.386 13.2345 120.813 13.2345 123.32 13.2345C123.32 13.4867 123.32 13.7238 123.32 13.9609C123.32 20.0455 123.339 26.1302 123.304 32.2147C123.297 33.4576 123.416 34.5755 124.576 35.3503Z" fill="white"/>
<path fill-rule="evenodd" clip-rule="evenodd" d="M234.965 30.876C236.415 31.5835 237.786 32.2876 239.188 32.925C240.21 33.3901 241.297 33.5019 242.408 33.2506C243.191 33.0732 243.827 32.713 244.012 31.8638C244.209 30.9613 243.718 30.3369 243.008 29.9557C241.776 29.2941 240.472 28.7655 239.228 28.1235C237.571 27.2682 235.84 26.5038 234.322 25.4421C230.682 22.8972 231.074 18.2072 233.431 15.5594C234.934 13.8698 236.871 13.003 239.056 12.6412C242.651 12.046 245.983 12.6533 248.905 14.9384C249.554 15.446 250.126 16.0515 250.779 16.6532C249.43 17.8942 248.164 19.0583 247.005 20.1243C245.724 19.5366 244.566 18.9478 243.363 18.4731C242.447 18.1116 241.464 18.0404 240.481 18.2479C239.799 18.3918 239.157 18.6047 239.003 19.4007C238.863 20.1249 239.17 20.6583 240.039 21.0699C241.857 21.9312 243.727 22.6888 245.517 23.6046C246.702 24.2112 247.867 24.9178 248.898 25.7544C252.428 28.6165 251.82 33.9058 248.908 36.5437C247.012 38.2618 244.715 38.9514 242.226 39.1656C238.421 39.4931 235.352 37.7578 232.331 35.7061C233.228 34.0608 234.101 32.4607 234.965 30.876Z" fill="white"/>
<path fill-rule="evenodd" clip-rule="evenodd" d="M146.535 15.5488C145.502 16.8999 144.513 18.2122 143.491 19.4981C143.403 19.6093 143.051 19.6311 142.897 19.5502C141.745 18.9461 140.531 18.602 139.236 18.4862C137.935 18.37 136.987 18.923 136.297 19.9627C135.219 21.5886 134.822 23.4244 134.768 25.3421C134.712 27.3041 135.097 29.1886 135.975 30.9462C137.089 33.1794 138.7 33.77 141.218 32.8048C142.343 32.3737 143.393 31.7478 144.53 31.1842C145.3 32.5633 146.128 34.027 146.926 35.5061C146.984 35.6121 146.883 35.9003 146.768 35.988C144.168 37.9674 141.338 39.3396 137.965 39.17C134.604 39.0012 131.997 37.4215 130.057 34.7436C126.27 29.5181 126.522 21.3466 130.578 16.3201C133.598 12.5767 138.609 11.4081 143.154 13.3899C144.37 13.9199 145.519 14.556 146.535 15.5488Z" fill="white"/>
<path fill-rule="evenodd" clip-rule="evenodd" d="M215.098 32.6887C215.618 34.3404 216.127 35.9583 216.638 37.5834C214.326 38.746 211.967 39.4699 209.385 39.1401C206.767 38.8057 204.886 36.86 204.484 34.0478C204.387 33.3664 204.346 32.6716 204.343 31.9826C204.331 27.8912 204.325 23.7996 204.352 19.7083C204.356 19.1637 204.162 18.9767 203.674 18.8605C202.122 18.4913 202.125 18.4756 202.125 16.8943C202.125 15.6792 202.125 14.464 202.125 13.1957C202.944 13.1957 203.69 13.1957 204.53 13.1957C204.53 11.6736 204.53 10.2026 204.53 8.69702C206.934 8.69702 209.242 8.69702 211.612 8.69702C211.612 10.1833 211.612 11.6395 211.612 13.164C213.024 13.164 214.376 13.164 215.783 13.164C215.783 15.1308 215.783 17.029 215.783 18.9959C214.462 18.9959 213.149 18.9959 211.77 18.9959C211.754 19.273 211.731 19.4869 211.73 19.7007C211.728 23.4665 211.726 27.2324 211.73 30.9982C211.731 32.8612 212.558 33.4706 214.345 32.9353C214.576 32.8661 214.803 32.7856 215.098 32.6887Z" fill="white"/>
<path fill-rule="evenodd" clip-rule="evenodd" d="M85.6511 13.2205C88.1085 13.2205 90.5225 13.2205 93.0338 13.2205C93.0338 13.7664 93.0338 14.3162 93.0338 14.8661C93.0852 14.8868 93.1367 14.9073 93.1881 14.9279C93.3432 14.7887 93.4966 14.6476 93.6538 14.5106C94.2963 13.9512 94.9038 13.3428 95.5924 12.8473C96.4481 12.2316 98.3191 12.4096 99.0964 13.1079C99.1714 13.1752 99.2353 13.3162 99.2221 13.4115C98.9045 15.7028 98.5757 17.9925 98.249 20.2825C97.369 20.0834 96.4938 19.8576 95.6067 19.6982C95.2377 19.6319 94.8348 19.6601 94.4617 19.7267C93.2364 19.9456 93.0256 20.2175 93.0256 21.4492C93.0256 26.8419 93.0256 32.2347 93.0256 37.6272C93.0256 37.867 93.0256 38.1066 93.0256 38.3888C90.5394 38.3888 88.1116 38.3888 85.6512 38.3888C85.6511 30.0103 85.6511 21.6536 85.6511 13.2205Z" fill="white"/>
<path fill-rule="evenodd" clip-rule="evenodd" d="M223.57 39.1878C220.82 39.1917 218.86 37.1446 219.119 34.6516C219.282 33.0833 220.631 31.6206 222.399 31.0952C224.954 30.3356 227.612 31.8458 228.047 34.3589C228.319 35.9311 227.647 37.184 226.449 38.1472C225.592 38.837 224.59 39.2207 223.57 39.1878Z" fill="white"/>
<path fill-rule="evenodd" clip-rule="evenodd" d="M43.3161 1.94214C42.7775 1.85134 42.4045 1.79866 42.0359 1.72434C40.7307 1.46142 40.1351 1.93894 40.1328 3.24301C40.1304 4.56417 40.5019 5.7204 41.5519 6.59508C42.1288 7.0758 42.6989 7.56472 43.3795 8.14087C40.981 8.35975 38.6874 8.72571 36.4607 9.87855C36.4978 9.37543 36.4813 9.01231 36.5597 8.67103C36.6861 8.12007 36.7914 7.53856 37.0541 7.04976C37.7058 5.837 37.8264 4.56521 37.7602 3.22413C37.7308 2.62865 37.844 2.00934 37.991 1.4257C38.2754 0.296104 38.7418 -0.0459752 39.9142 0.00482461C41.0462 0.0539844 42.0489 0.461183 42.8484 1.29114C42.9943 1.4427 43.0979 1.63486 43.3161 1.94214Z" fill="white"/>
</svg>
