<svg width="125" height="80" viewBox="0 0 125 80" fill="none" xmlns="http://www.w3.org/2000/svg">
<path d="M6.78895 79.9776C10.3486 79.9776 12.9231 78.3881 12.9231 75.0972C12.9231 71.4704 9.63216 70.463 7.57251 70.1048C5.89346 69.8137 3.29652 69.5675 3.29652 67.9332C3.29652 66.478 4.97557 66.1198 6.00539 66.1198C7.55013 66.1198 8.91576 66.6571 10.0799 67.3959C10.3486 67.575 10.5724 67.5302 10.7291 67.284L11.9381 65.5825C12.1172 65.3139 12.0724 65.09 11.8261 64.9109C10.0575 63.6572 8.40085 63.0527 6.16211 63.0527C3.43084 63.0527 0.0279539 64.396 0.0279539 68.0451C0.0279539 71.9182 4.12485 72.545 6.16211 72.9032C7.97549 73.239 9.65454 73.6196 9.65454 75.0524C9.65454 76.3061 8.60234 76.9105 6.90089 76.9105C5.13229 76.9105 3.25174 76.1718 1.93088 75.321C1.68462 75.1643 1.43836 75.2091 1.28165 75.4554L0.117503 77.1568C-0.0615958 77.4031 -0.0392084 77.6493 0.207053 77.8284C2.15476 79.2612 4.19201 79.9776 6.78895 79.9776Z" fill="white"/>
<path d="M26.1103 65.8512V63.7915C26.1103 63.5005 25.9312 63.3214 25.6178 63.3214H14.1555C13.842 63.3214 13.6629 63.5005 13.6629 63.7915V65.8512C13.6629 66.1422 13.842 66.3213 14.1555 66.3213H17.8494C18.1404 66.3213 18.2971 66.478 18.2971 66.769V79.2165C18.2971 79.5299 18.4762 79.709 18.7673 79.709H21.0284C21.3418 79.709 21.5209 79.5299 21.5209 79.2165V66.769C21.5209 66.478 21.6776 66.3213 21.9687 66.3213H25.6178C25.9312 66.3213 26.1103 66.1422 26.1103 65.8512Z" fill="white"/>
<path d="M31.7343 69.5675V66.769C31.7343 66.478 31.9134 66.3213 32.1821 66.3213H39.7714C40.0624 66.3213 40.2415 66.1422 40.2415 65.8288V63.7915C40.2415 63.5005 40.0624 63.3214 39.7714 63.3214H29.003C28.6896 63.3214 28.5105 63.5005 28.5105 63.7915V79.2165C28.5105 79.5299 28.6896 79.709 29.003 79.709H39.7714C40.0624 79.709 40.2415 79.5299 40.2415 79.2165V77.1792C40.2415 76.8882 40.0624 76.7091 39.7714 76.7091H32.1821C31.9134 76.7091 31.7343 76.53 31.7343 76.2613V73.4629C31.7343 73.1942 31.9134 73.0151 32.1821 73.0151H38.8087C39.1222 73.0151 39.3013 72.836 39.3013 72.545V70.5077C39.3013 70.1943 39.1222 70.0152 38.8087 70.0152H32.1821C31.9134 70.0152 31.7343 69.8585 31.7343 69.5675Z" fill="white"/>
<path d="M46.2512 69.5899V66.769C46.2512 66.478 46.4302 66.3213 46.6989 66.3213H54.1987C54.4897 66.3213 54.6688 66.1422 54.6688 65.8512V63.7915C54.6688 63.5005 54.4897 63.3214 54.1987 63.3214H43.5199C43.2065 63.3214 43.0274 63.5005 43.0274 63.7915V79.2165C43.0274 79.5299 43.2065 79.709 43.5199 79.709H45.781C46.0721 79.709 46.2512 79.5299 46.2512 79.2165V73.4853C46.2512 73.1942 46.4302 73.0375 46.6989 73.0375H53.236C53.5494 73.0375 53.7285 72.8584 53.7285 72.5674V70.5077C53.7285 70.2167 53.5494 70.0376 53.236 70.0376H46.6989C46.4302 70.0376 46.2512 69.8809 46.2512 69.5899Z" fill="white"/>
<path d="M57.1507 63.7691V72.948C57.1507 77.2687 60.061 79.9776 64.4266 79.9776C68.7921 79.9776 71.6801 77.2687 71.6801 72.948V63.7691C71.6801 63.5005 71.501 63.3214 71.2324 63.3214H68.8817C68.613 63.3214 68.4563 63.5005 68.4563 63.7691V72.8584C68.4563 75.8136 66.3967 76.8882 64.4266 76.8882C62.4789 76.8882 60.3745 75.8136 60.3745 72.8584V63.7691C60.3745 63.5005 60.2177 63.3214 59.9491 63.3214H57.5984C57.3298 63.3214 57.1507 63.5005 57.1507 63.7691Z" fill="white"/>
<path d="M89.7408 63.3214H87.4797C87.1663 63.3214 86.9872 63.5005 86.9872 63.7915V73.6644C86.9872 74.0673 86.6961 74.1793 86.4499 73.8435L78.5919 63.6124C78.4352 63.4109 78.2785 63.3214 78.0098 63.3214H75.6143C75.3009 63.3214 75.1218 63.5005 75.1218 63.7915V79.2165C75.1218 79.5299 75.3009 79.709 75.6143 79.709H77.8755C78.1665 79.709 78.3456 79.5299 78.3456 79.2165V69.366C78.3456 68.9406 78.6366 68.8287 78.9053 69.1645L86.7857 79.4179C86.9424 79.6194 87.0991 79.709 87.3677 79.709H89.7408C90.0318 79.709 90.2109 79.5299 90.2109 79.2165V63.7915C90.2109 63.5005 90.0318 63.3214 89.7408 63.3214Z" fill="white"/>
<path d="M103.332 63.3214C103.086 63.3214 102.884 63.3885 102.728 63.59L97.4667 69.4331C97.1981 69.7466 96.9071 69.6346 96.9071 69.2317V63.7915C96.9071 63.5005 96.728 63.3214 96.4369 63.3214H94.1758C93.8624 63.3214 93.6833 63.5005 93.6833 63.7915V79.2165C93.6833 79.5299 93.8624 79.709 94.1758 79.709H96.4369C96.728 79.709 96.9071 79.5299 96.9071 79.2165V73.4405C96.9071 73.0151 97.1981 72.9256 97.4667 73.239L102.683 79.4179C102.84 79.6194 103.019 79.709 103.265 79.709H106.265C106.668 79.709 106.802 79.4179 106.556 79.1269L100.086 71.6943C99.9294 71.4704 99.9294 71.2689 100.108 71.0674L106.623 63.9035C106.914 63.6124 106.78 63.3214 106.377 63.3214H103.332Z" fill="white"/>
<path d="M107.132 71.5152C107.132 76.1941 110.714 80 115.595 80C120.498 80 124.08 76.1941 124.08 71.5152C124.08 66.8586 120.498 63.0527 115.595 63.0527C110.714 63.0527 107.132 66.8586 107.132 71.5152ZM110.446 71.5152C110.446 68.3138 112.64 66.1422 115.595 66.1422C118.572 66.1422 120.766 68.3138 120.766 71.5152C120.766 74.739 118.572 76.8882 115.595 76.8882C112.64 76.8882 110.446 74.739 110.446 71.5152Z" fill="white"/>
<path d="M50.2639 0L45.147 5.13722L45.147 7.17176H81.9891V0H50.2639Z" fill="white"/>
<path d="M76.8723 39.9569L81.9893 34.8197L81.9893 32.7852L45.1471 32.7852L45.1471 39.9569L76.8723 39.9569Z" fill="white"/>
<path fill-rule="evenodd" clip-rule="evenodd" d="M45.147 16.3927L81.9372 16.3926L81.9372 20.4907L81.9372 23.5643H50.5138L45.147 16.3927Z" fill="white"/>
</svg>
