<svg width="278" height="61" viewBox="0 0 278 61" fill="none" xmlns="http://www.w3.org/2000/svg">
<path d="M101.284 44.1414C106.629 44.1414 110.495 41.7546 110.495 36.8128C110.495 31.3668 105.554 29.854 102.461 29.3161C99.9396 28.8791 96.0399 28.5093 96.0399 26.0553C96.0399 23.8701 98.5612 23.3323 100.108 23.3323C102.427 23.3323 104.478 24.1391 106.226 25.2484C106.629 25.5174 106.966 25.4501 107.201 25.0804L109.016 22.5254C109.285 22.122 109.218 21.7859 108.848 21.5169C106.192 19.6344 103.705 18.7267 100.343 18.7267C96.2417 18.7267 91.1318 20.7437 91.1318 26.2233C91.1318 32.0391 97.2838 32.9804 100.343 33.5183C103.066 34.0226 105.587 34.5941 105.587 36.7456C105.587 38.6281 104.007 39.5358 101.452 39.5358C98.7966 39.5358 95.9727 38.4264 93.9893 37.149C93.6195 36.9137 93.2497 36.9809 93.0144 37.3507L91.2663 39.9056C90.9974 40.2754 91.031 40.6452 91.4008 40.9141C94.3255 43.0656 97.3846 44.1414 101.284 44.1414Z" fill="white"/>
<path d="M130.298 22.9289V19.8361C130.298 19.399 130.029 19.1301 129.558 19.1301H112.346C111.875 19.1301 111.606 19.399 111.606 19.8361V22.9289C111.606 23.3659 111.875 23.6348 112.346 23.6348H117.893C118.33 23.6348 118.565 23.8701 118.565 24.3072V42.9984C118.565 43.469 118.834 43.738 119.271 43.738H122.666C123.137 43.738 123.406 43.469 123.406 42.9984V24.3072C123.406 23.8701 123.641 23.6348 124.078 23.6348H129.558C130.029 23.6348 130.298 23.3659 130.298 22.9289Z" fill="white"/>
<path d="M138.743 28.5093V24.3072C138.743 23.8701 139.012 23.6348 139.415 23.6348H150.811C151.248 23.6348 151.517 23.3659 151.517 22.8952V19.8361C151.517 19.399 151.248 19.1301 150.811 19.1301H134.641C134.171 19.1301 133.902 19.399 133.902 19.8361V42.9984C133.902 43.469 134.171 43.738 134.641 43.738H150.811C151.248 43.738 151.517 43.469 151.517 42.9984V39.9392C151.517 39.5022 151.248 39.2333 150.811 39.2333H139.415C139.012 39.2333 138.743 38.9643 138.743 38.5609V34.3587C138.743 33.9553 139.012 33.6864 139.415 33.6864H149.366C149.836 33.6864 150.105 33.4175 150.105 32.9804V29.9213C150.105 29.4506 149.836 29.1817 149.366 29.1817H139.415C139.012 29.1817 138.743 28.9464 138.743 28.5093Z" fill="white"/>
<path d="M160.541 28.5429V24.3072C160.541 23.8701 160.81 23.6348 161.214 23.6348H172.476C172.913 23.6348 173.181 23.3659 173.181 22.9289V19.8361C173.181 19.399 172.913 19.1301 172.476 19.1301H156.44C155.969 19.1301 155.7 19.399 155.7 19.8361V42.9984C155.7 43.469 155.969 43.738 156.44 43.738H159.835C160.272 43.738 160.541 43.469 160.541 42.9984V34.3924C160.541 33.9553 160.81 33.72 161.214 33.72H171.03C171.501 33.72 171.77 33.4511 171.77 33.014V29.9213C171.77 29.4842 171.501 29.2153 171.03 29.2153H161.214C160.81 29.2153 160.541 28.98 160.541 28.5429Z" fill="white"/>
<path d="M176.908 19.8024V33.5855C176.908 40.0737 181.279 44.1414 187.834 44.1414C194.389 44.1414 198.726 40.0737 198.726 33.5855V19.8024C198.726 19.399 198.457 19.1301 198.054 19.1301H194.524C194.12 19.1301 193.885 19.399 193.885 19.8024V33.4511C193.885 37.8886 190.792 39.5022 187.834 39.5022C184.909 39.5022 181.749 37.8886 181.749 33.4511V19.8024C181.749 19.399 181.514 19.1301 181.11 19.1301H177.581C177.177 19.1301 176.908 19.399 176.908 19.8024Z" fill="white"/>
<path d="M225.846 19.1301H222.451C221.98 19.1301 221.711 19.399 221.711 19.8361V34.6613C221.711 35.2664 221.274 35.4345 220.904 34.9302L209.105 19.5671C208.869 19.2646 208.634 19.1301 208.231 19.1301H204.634C204.163 19.1301 203.894 19.399 203.894 19.8361V42.9984C203.894 43.469 204.163 43.738 204.634 43.738H208.029C208.466 43.738 208.735 43.469 208.735 42.9984V28.2068C208.735 27.568 209.172 27.4 209.575 27.9042L221.409 43.3009C221.644 43.6035 221.879 43.738 222.283 43.738H225.846C226.283 43.738 226.552 43.469 226.552 42.9984V19.8361C226.552 19.399 226.283 19.1301 225.846 19.1301Z" fill="white"/>
<path d="M246.255 19.1301C245.886 19.1301 245.583 19.2309 245.348 19.5335L237.448 28.3076C237.044 28.7783 236.607 28.6102 236.607 28.0051V19.8361C236.607 19.399 236.338 19.1301 235.901 19.1301H232.506C232.035 19.1301 231.766 19.399 231.766 19.8361V42.9984C231.766 43.469 232.035 43.738 232.506 43.738H235.901C236.338 43.738 236.607 43.469 236.607 42.9984V34.3251C236.607 33.6864 237.044 33.5519 237.448 34.0226L245.28 43.3009C245.516 43.6035 245.785 43.738 246.154 43.738H250.659C251.264 43.738 251.466 43.3009 251.096 42.8639L241.381 31.703C241.145 31.3668 241.145 31.0642 241.414 30.7617L251.197 20.0041C251.634 19.5671 251.432 19.1301 250.827 19.1301H246.255Z" fill="white"/>
<path d="M251.962 31.434C251.962 38.4601 257.34 44.175 264.669 44.175C272.031 44.175 277.41 38.4601 277.41 31.434C277.41 24.4416 272.031 18.7267 264.669 18.7267C257.34 18.7267 251.962 24.4416 251.962 31.434ZM256.937 31.434C256.937 26.6268 260.231 23.3659 264.669 23.3659C269.14 23.3659 272.435 26.6268 272.435 31.434C272.435 36.2749 269.14 39.5022 264.669 39.5022C260.231 39.5022 256.937 36.2749 256.937 31.434Z" fill="white"/>
<path d="M8.1056 0.968719L0.421875 8.68285L0.421875 11.738H55.7447V0.968719H8.1056Z" fill="white"/>
<path d="M48.0611 60.9687L55.7449 53.2546L55.7449 50.1995L0.422061 50.1995L0.42206 60.9687L48.0611 60.9687Z" fill="white"/>
<path fill-rule="evenodd" clip-rule="evenodd" d="M0.421875 25.5843L55.6667 25.5841L55.6667 31.7379L55.6667 36.3533H8.48075L0.421875 25.5843Z" fill="white"/>
</svg>
