<svg width="221" height="40" viewBox="0 0 221 40" fill="none" xmlns="http://www.w3.org/2000/svg">
<path d="M8.67049 0H7.42249C3.51049 0 0.30249 3.208 0.30249 7.12V8.36C4.58249 7.656 7.95849 4.28 8.67049 0Z" fill="white"/>
<path d="M33.1825 0H14.8225C14.0465 7.656 7.95849 13.744 0.30249 14.52V32.88C0.30249 36.8 3.51049 40 7.42249 40H33.1825C37.1025 40 40.3025 36.792 40.3025 32.88V7.12C40.3025 3.208 37.0945 0 33.1825 0ZM24.9105 4.12V10.224C19.2945 10.224 14.7425 14.776 14.7425 20.392H8.63849C8.63849 11.408 15.9185 4.12 24.9105 4.12ZM14.7345 36.664V30.56C20.3505 30.56 24.9025 26.008 24.9025 20.392H31.0065C31.0065 29.384 23.7265 36.664 14.7345 36.664Z" fill="white"/>
<path d="M63.6066 15.9039C63.4386 15.7359 63.1266 15.5039 62.6706 15.2079C62.2146 14.9119 61.6706 14.6239 61.0226 14.3439C60.3746 14.0639 59.6706 13.8239 58.9186 13.6319C58.1586 13.4399 57.3906 13.3359 56.6066 13.3359C55.2146 13.3359 54.1746 13.5919 53.4946 14.1039C52.8066 14.6159 52.4706 15.3359 52.4706 16.2639C52.4706 16.7999 52.5986 17.2479 52.8546 17.5999C53.1106 17.9519 53.4866 18.2639 53.9746 18.5359C54.4626 18.8079 55.0786 19.0479 55.8226 19.2719C56.5666 19.4959 57.4306 19.7279 58.4066 19.9679C59.6786 20.3119 60.8306 20.6799 61.8706 21.0639C62.9106 21.4559 63.7906 21.9439 64.5106 22.5279C65.2306 23.1119 65.7906 23.8159 66.1746 24.6399C66.5666 25.4559 66.7586 26.4639 66.7586 27.6639C66.7586 29.0559 66.4946 30.2479 65.9666 31.2399C65.4386 32.2319 64.7346 33.0319 63.8386 33.6399C62.9426 34.2479 61.9186 34.6959 60.7586 34.9759C59.5986 35.2559 58.3826 35.3999 57.1106 35.3999C55.1586 35.3999 53.2226 35.1039 51.3186 34.5199C49.4146 33.9359 47.7026 33.1039 46.1826 32.0239L48.4226 27.6639C48.6386 27.8799 49.0386 28.1679 49.6146 28.5279C50.1906 28.8799 50.8706 29.2399 51.6466 29.5919C52.4306 29.9439 53.2946 30.2479 54.2466 30.4879C55.1986 30.7359 56.1746 30.8559 57.1826 30.8559C59.9666 30.8559 61.3586 29.9679 61.3586 28.1759C61.3586 27.6159 61.1986 27.1359 60.8786 26.7439C60.5586 26.3519 60.1106 26.0079 59.5186 25.7199C58.9346 25.4239 58.2226 25.1599 57.3906 24.9119C56.5586 24.6719 55.6306 24.3999 54.6066 24.1039C53.3586 23.7599 52.2786 23.3919 51.3586 22.9839C50.4386 22.5839 49.6786 22.1039 49.0706 21.5519C48.4626 20.9999 47.9986 20.3679 47.6946 19.6479C47.3906 18.9279 47.2386 18.0639 47.2386 17.0639C47.2386 15.7439 47.4866 14.5679 47.9746 13.5439C48.4626 12.5199 49.1426 11.6639 50.0066 10.9759C50.8706 10.2879 51.8786 9.77594 53.0306 9.41594C54.1826 9.06394 55.4146 8.88794 56.7346 8.88794C58.5666 8.88794 60.2546 9.17594 61.7906 9.75194C63.3266 10.3279 64.6706 11.0079 65.8226 11.7839L63.6066 15.9039Z" fill="white"/>
<path d="M70.5747 35.112V9.08801H81.6067C82.8067 9.08801 83.9107 9.33601 84.9267 9.84001C85.9427 10.344 86.8147 11 87.5507 11.816C88.2867 12.632 88.8547 13.56 89.2707 14.6C89.6867 15.64 89.8947 16.68 89.8947 17.736C89.8947 18.832 89.7027 19.904 89.3107 20.944C88.9187 21.984 88.3667 22.904 87.6627 23.712C86.9507 24.52 86.0947 25.168 85.0947 25.656C84.0947 26.144 82.9907 26.392 81.7987 26.392H75.6387V35.12H70.5747V35.112ZM75.6307 21.952H81.4947C82.4227 21.952 83.1987 21.576 83.8227 20.816C84.4467 20.056 84.7587 19.032 84.7587 17.736C84.7587 17.08 84.6627 16.48 84.4627 15.96C84.2707 15.432 84.0067 14.992 83.6947 14.624C83.3747 14.256 83.0067 13.984 82.5747 13.8C82.1507 13.616 81.7107 13.528 81.2707 13.528H75.6227V21.952H75.6307Z" fill="white"/>
<path d="M104.518 35.296C102.614 35.296 100.886 34.92 99.3344 34.176C97.7824 33.432 96.4544 32.44 95.3424 31.208C94.2304 29.976 93.3664 28.56 92.7584 26.976C92.1504 25.384 91.8384 23.76 91.8384 22.104C91.8384 20.368 92.1584 18.704 92.8064 17.12C93.4544 15.528 94.3424 14.128 95.4864 12.904C96.6224 11.68 97.9744 10.712 99.5344 9.99199C101.094 9.27199 102.798 8.91199 104.63 8.91199C106.51 8.91199 108.23 9.29599 109.782 10.064C111.334 10.832 112.662 11.84 113.758 13.088C114.854 14.336 115.71 15.752 116.326 17.344C116.934 18.936 117.246 20.544 117.246 22.184C117.246 23.92 116.926 25.576 116.294 27.152C115.662 28.728 114.782 30.12 113.654 31.328C112.526 32.536 111.182 33.504 109.622 34.224C108.054 34.936 106.35 35.296 104.518 35.296ZM96.9664 22.104C96.9664 23.232 97.1344 24.32 97.4784 25.368C97.8224 26.416 98.3184 27.344 98.9664 28.152C99.6144 28.96 100.406 29.608 101.35 30.096C102.294 30.584 103.358 30.832 104.558 30.832C105.782 30.832 106.862 30.584 107.806 30.08C108.75 29.576 109.542 28.912 110.19 28.08C110.838 27.248 111.326 26.312 111.654 25.272C111.982 24.232 112.15 23.176 112.15 22.104C112.15 20.984 111.974 19.896 111.622 18.84C111.27 17.792 110.766 16.864 110.118 16.056C109.47 15.248 108.678 14.608 107.734 14.128C106.79 13.648 105.734 13.416 104.566 13.416C103.342 13.416 102.254 13.664 101.302 14.168C100.35 14.672 99.5584 15.328 98.9184 16.144C98.2864 16.96 97.7984 17.888 97.4704 18.928C97.1344 19.968 96.9664 21.024 96.9664 22.104Z" fill="white"/>
<path d="M121.127 35.112V9.08801H132.639C133.839 9.08801 134.943 9.33601 135.959 9.84001C136.975 10.344 137.847 11 138.583 11.816C139.319 12.632 139.887 13.56 140.303 14.6C140.719 15.64 140.927 16.68 140.927 17.736C140.927 19.424 140.503 20.96 139.663 22.336C138.823 23.72 137.679 24.712 136.239 25.32L142.175 35.104H136.495L131.183 26.376H126.199V35.104H121.127V35.112ZM126.183 21.952H132.527C132.991 21.952 133.423 21.84 133.831 21.624C134.231 21.408 134.583 21.104 134.879 20.728C135.175 20.352 135.407 19.904 135.575 19.392C135.743 18.88 135.831 18.328 135.831 17.744C135.831 17.136 135.735 16.568 135.535 16.056C135.335 15.544 135.079 15.096 134.743 14.72C134.415 14.344 134.031 14.048 133.607 13.84C133.183 13.632 132.743 13.528 132.303 13.528H126.183V21.952V21.952Z" fill="white"/>
<path d="M164.567 13.52H156.247V35.112H151.223V13.52H142.903V9.08801H164.567V13.52Z" fill="white"/>
<path d="M191.07 15.9039C190.902 15.7359 190.59 15.5039 190.134 15.2079C189.678 14.9119 189.134 14.6239 188.486 14.3439C187.838 14.0639 187.134 13.8239 186.382 13.6319C185.622 13.4399 184.854 13.3359 184.07 13.3359C182.678 13.3359 181.638 13.5919 180.95 14.1039C180.262 14.6159 179.926 15.3359 179.926 16.2639C179.926 16.7999 180.054 17.2479 180.31 17.5999C180.566 17.9519 180.942 18.2639 181.43 18.5359C181.918 18.8079 182.534 19.0479 183.278 19.2719C184.022 19.4959 184.886 19.7279 185.862 19.9679C187.134 20.3119 188.286 20.6799 189.326 21.0639C190.366 21.4559 191.246 21.9439 191.966 22.5279C192.686 23.1119 193.246 23.8159 193.63 24.6399C194.022 25.4559 194.214 26.4639 194.214 27.6639C194.214 29.0559 193.95 30.2479 193.422 31.2399C192.894 32.2319 192.19 33.0319 191.294 33.6399C190.398 34.2479 189.374 34.6959 188.214 34.9759C187.054 35.2559 185.838 35.3999 184.566 35.3999C182.614 35.3999 180.678 35.1039 178.774 34.5199C176.87 33.9359 175.158 33.1039 173.638 32.0239L175.878 27.6639C176.094 27.8799 176.494 28.1679 177.07 28.5279C177.646 28.8799 178.326 29.2399 179.102 29.5919C179.886 29.9439 180.75 30.2479 181.702 30.4879C182.654 30.7359 183.63 30.8559 184.638 30.8559C187.422 30.8559 188.814 29.9679 188.814 28.1759C188.814 27.6159 188.654 27.1359 188.334 26.7439C188.014 26.3519 187.566 26.0079 186.974 25.7199C186.39 25.4239 185.678 25.1599 184.846 24.9119C184.014 24.6719 183.086 24.3999 182.062 24.1039C180.814 23.7599 179.734 23.3919 178.814 22.9839C177.894 22.5839 177.134 22.1039 176.526 21.5519C175.918 20.9999 175.454 20.3679 175.15 19.6479C174.846 18.9279 174.694 18.0639 174.694 17.0639C174.694 15.7439 174.934 14.5679 175.43 13.5439C175.918 12.5199 176.598 11.6639 177.462 10.9759C178.326 10.2879 179.334 9.77594 180.486 9.41594C181.638 9.06394 182.87 8.88794 184.19 8.88794C186.022 8.88794 187.71 9.17594 189.246 9.75194C190.782 10.3279 192.126 11.0079 193.278 11.7839L191.07 15.9039Z" fill="white"/>
<path d="M198.038 35.112V9.12801H203.094V21.48L214.022 9.08801H219.598L209.63 20.632L220.222 35.112H214.542L206.438 23.856L203.102 27.336V35.104H198.038V35.112Z" fill="white"/>
<path d="M166.086 35.1199C167.929 35.1199 169.422 33.6263 169.422 31.7839C169.422 29.9415 167.929 28.4479 166.086 28.4479C164.244 28.4479 162.75 29.9415 162.75 31.7839C162.75 33.6263 164.244 35.1199 166.086 35.1199Z" fill="white"/>
<path d="M51.9264 1.12793L49.0864 3.96793C53.2704 8.15193 60.0624 8.15193 64.2464 3.96793L61.4064 1.12793C58.7904 3.74393 54.5424 3.74393 51.9264 1.12793Z" fill="white"/>
</svg>
