<svg width="147" height="60" viewBox="0 0 147 60" fill="none" xmlns="http://www.w3.org/2000/svg">
<path d="M0.0488281 57.5995V48.8497L17.2362 27.9536H1.4051C0.66095 27.9536 0.0488281 27.3535 0.0488281 26.5973V17.5235C0.0488281 16.7794 0.648947 16.1672 1.4051 16.1672H34.3876C35.1318 16.1672 35.7439 16.7674 35.7439 17.5235V25.8292L18.2084 47.1694H34.7477C35.4919 47.1694 36.104 47.7695 36.104 48.5257V57.5995C36.104 58.3436 35.5039 58.9557 34.7477 58.9557H1.4051C0.66095 58.9437 0.0488281 58.3436 0.0488281 57.5995Z" fill="white"/>
<path d="M40.7129 57.5995V17.5235C40.7129 16.7794 41.313 16.1672 42.0692 16.1672H53.0034C53.7475 16.1672 54.3596 16.7674 54.3596 17.5235V57.5995C54.3596 58.3436 53.7595 58.9557 53.0034 58.9557H42.0692C41.325 58.9437 40.7129 58.3436 40.7129 57.5995Z" fill="white"/>
<path d="M72.8072 57.5154L57.2161 17.8956C56.892 17.0674 57.5041 16.1672 58.3923 16.1672H69.3025C70.2507 16.1672 71.1028 16.7674 71.4269 17.6555L80.6327 43.2686L89.7546 17.6675C90.0786 16.7674 90.9188 16.1672 91.879 16.1672H102.873C103.761 16.1672 104.373 17.0674 104.049 17.8956L88.4583 57.5154C88.1222 58.3796 87.2821 58.9437 86.3579 58.9437H74.9076C73.9714 58.9437 73.1433 58.3796 72.8072 57.5154Z" fill="white"/>
<path d="M124.442 26.0934C118.512 26.0934 115.224 29.6341 114.696 32.7307H133.299C132.951 29.7181 130.731 26.0934 124.442 26.0934ZM101.769 37.5196C101.769 25.1212 111.071 15.1112 124.442 15.1112C137.104 15.1112 146.322 24.413 146.322 38.9359V40.3882C146.322 41.3004 145.59 42.0325 144.678 42.0325H114.876C115.848 45.8373 120.373 49.0299 126.566 49.0299C129.194 49.0299 133.311 48.0217 135.964 46.2214C136.576 45.8133 137.416 45.9933 137.824 46.6054L142.289 53.3268C142.673 53.9029 142.553 54.6951 142.001 55.1151C137.692 58.3918 131.151 60.0001 125.066 60.0001C111.863 60.0121 101.769 51.4184 101.769 37.5196Z" fill="white"/>
<path d="M106.522 7.92157V1.35627C106.522 0.612122 107.122 0 107.878 0H140.861C141.605 0 142.217 0.600119 142.217 1.35627V7.92157C142.217 8.66572 141.617 9.27784 140.861 9.27784H107.878C107.134 9.27784 106.522 8.66572 106.522 7.92157Z" fill="white"/>
<path d="M0.0368652 7.92157V1.35627C0.0368652 0.600119 0.636984 0 1.39313 0H34.3757C35.1198 0 35.7319 0.600119 35.7319 1.35627V7.92157C35.7319 8.66572 35.1318 9.27784 34.3757 9.27784H1.39313C0.636984 9.27784 0.0368652 8.66572 0.0368652 7.92157Z" fill="white"/>
</svg>
